<?xml version="1.0" standalone="no"?>
<!DOCTYPE svg PUBLIC "-//W3C//DTD SVG 20010904//EN"
 "http://www.w3.org/TR/2001/REC-SVG-20010904/DTD/svg10.dtd">
<svg version="1.0" xmlns="http://www.w3.org/2000/svg"
 width="1280.000000pt" height="793.000000pt" viewBox="0 0 1280.000000 793.000000"
 preserveAspectRatio="xMidYMid meet">
<metadata>
Created by potrace 1.15, written by Peter Selinger 2001-2017
</metadata>
<g transform="translate(0.000000,793.000000) scale(0.100000,-0.100000)"
fill="#000000" stroke="none">
<path d="M5995 7360 c-1009 -10 -2163 -28 -2340 -36 l-130 -7 -85 -86 c-95
-97 -261 -295 -615 -731 -132 -162 -327 -400 -435 -529 -107 -129 -213 -255
-234 -282 l-40 -47 -51 101 c-76 149 -227 390 -284 450 -52 57 -135 84 -281
93 -214 14 -549 -53 -724 -144 -71 -37 -125 -94 -169 -176 -27 -53 -29 -152
-4 -214 24 -59 79 -143 128 -197 89 -97 247 -123 793 -133 l359 -7 -124 -103
c-68 -57 -242 -196 -387 -309 -327 -255 -336 -263 -356 -333 -51 -178 -66
-494 -75 -1589 -9 -983 -8 -1002 38 -1106 11 -25 30 -60 42 -76 21 -30 22 -35
15 -257 -4 -125 -11 -316 -16 -425 l-10 -198 91 -144 91 -145 600 0 600 0 72
60 73 60 7 293 c10 428 27 602 64 647 16 20 21 20 157 10 1724 -124 2333 -156
3480 -180 1366 -28 2825 13 4097 117 l78 6 14 -34 c21 -50 34 -159 46 -389 25
-467 32 -513 84 -543 25 -14 821 -23 1061 -12 l150 8 82 87 82 87 11 428 c8
318 15 443 26 484 18 68 19 313 4 1031 -27 1293 -30 1476 -30 1651 l0 187 -32
32 c-18 17 -121 100 -228 183 -195 152 -334 269 -465 391 l-70 65 215 1 c317
0 598 25 756 66 107 27 158 59 214 132 142 188 154 315 45 454 -55 71 -117
107 -255 152 -185 60 -311 80 -510 81 -199 0 -261 -13 -330 -68 -22 -18 -140
-144 -261 -282 -122 -137 -225 -251 -229 -253 -4 -2 -77 91 -161 205 -562 764
-961 1275 -1098 1408 -48 46 -56 50 -119 57 -101 12 -2479 17 -3427 8z m4144
-1074 l683 -894 77 -48 c415 -260 808 -557 870 -657 11 -18 23 -62 28 -98 l9
-66 -150 -16 c-155 -17 -353 -53 -486 -88 -597 -158 -986 -358 -1262 -647
-113 -120 -234 -299 -214 -319 16 -17 242 -36 431 -36 286 -1 477 28 725 109
319 104 632 305 784 503 55 72 73 108 87 173 13 61 32 101 65 141 17 20 26 24
29 15 13 -35 25 -732 25 -1418 l0 -766 -32 -19 c-62 -35 -150 -108 -227 -186
l-76 -79 -75 -10 c-326 -43 -1058 -73 -2255 -91 -872 -13 -3587 -6 -3945 10
-129 5 -345 15 -480 21 -800 35 -1675 99 -2490 181 -593 59 -970 105 -970 118
0 3 -43 85 -95 181 l-95 175 0 740 c0 667 11 1210 25 1223 16 17 128 -73 165
-132 11 -18 25 -57 31 -87 20 -95 65 -165 179 -279 257 -257 627 -429 1070
-497 157 -24 496 -24 670 0 68 10 126 19 128 21 5 6 -37 86 -78 146 -175 256
-500 494 -880 643 -352 139 -767 236 -1105 259 -93 6 -171 12 -173 13 -6 4 22
112 36 140 47 92 150 177 477 393 385 254 394 262 560 467 184 229 485 576
1073 1238 l353 397 747 1 c411 1 1298 5 1972 8 674 4 1648 8 2165 9 l940 2
684 -894z"/>
<path d="M6580 7069 c-1690 -14 -2749 -43 -2890 -79 -60 -16 -303 -273 -833
-882 -333 -383 -597 -692 -597 -699 0 -79 2702 -75 6740 11 239 5 696 14 1015
20 319 7 586 13 593 16 7 2 -35 65 -105 156 -609 797 -1067 1353 -1187 1439
l-39 29 -896 -2 c-493 -1 -1303 -5 -1801 -9z"/>
<path d="M5375 3839 c-463 -13 -824 -40 -1030 -75 -203 -35 -164 -41 718 -119
877 -77 1120 -105 1244 -140 52 -15 53 -16 92 -98 22 -45 59 -143 82 -217 32
-101 44 -129 50 -115 5 11 29 74 55 140 50 130 101 230 132 258 29 26 14 24
1217 152 486 52 806 91 850 103 l30 9 -30 6 c-61 13 -383 39 -695 57 -762 43
-1972 61 -2715 39z"/>
</g>
</svg>
